<mxfile host="app.diagrams.net" modified="2023-06-03T23:52:54.628Z" agent="Mozilla/5.0 (Windows NT 10.0; Win64; x64) AppleWebKit/537.36 (KHTML, like Gecko) Chrome/113.0.0.0 Safari/537.36" etag="aSJpcGXjyCHXDvARrugo" version="21.3.6" type="github" pages="2">
  <diagram name="Page-1" id="e3a06f82-3646-2815-327d-82caf3d4e204">
    <mxGraphModel dx="3043.5" dy="3080" grid="1" gridSize="10" guides="1" tooltips="1" connect="1" arrows="1" fold="1" page="1" pageScale="1.5" pageWidth="1169" pageHeight="826" background="none" math="0" shadow="0">
      <root>
        <mxCell id="0" style=";html=1;" />
        <mxCell id="1" style=";html=1;" parent="0" />
        <mxCell id="kZsjGJi9dcrxmFM2xixJ-206" value="" style="rounded=0;whiteSpace=wrap;html=1;fillOpacity=10;" vertex="1" parent="1">
          <mxGeometry x="408" y="440" width="460" height="468" as="geometry" />
        </mxCell>
        <mxCell id="kZsjGJi9dcrxmFM2xixJ-226" value="" style="rounded=0;whiteSpace=wrap;html=1;fillOpacity=10;" vertex="1" parent="1">
          <mxGeometry x="874" y="440" width="75" height="468.25" as="geometry" />
        </mxCell>
        <mxCell id="kZsjGJi9dcrxmFM2xixJ-224" value="" style="rounded=0;whiteSpace=wrap;html=1;fillOpacity=10;" vertex="1" parent="1">
          <mxGeometry x="180" y="440" width="199" height="466.5" as="geometry" />
        </mxCell>
        <mxCell id="kZsjGJi9dcrxmFM2xixJ-202" value="" style="shape=cube;whiteSpace=wrap;html=1;boundedLbl=1;backgroundOutline=1;darkOpacity=0.05;darkOpacity2=0.1;size=26;rotation=-180;direction=west;labelBorderColor=#1A1A1A;fillColor=#333333;fillStyle=auto;" vertex="1" parent="1">
          <mxGeometry x="305" y="590" width="30" height="90" as="geometry" />
        </mxCell>
        <mxCell id="6a7d8f32e03d9370-60" value="Enterprise cloud" style="whiteSpace=wrap;html=1;fillColor=#d5e8d4;fontSize=14;strokeColor=none;verticalAlign=top;" parent="1" vertex="1">
          <mxGeometry x="2060" y="35" width="602" height="374" as="geometry" />
        </mxCell>
        <mxCell id="6a7d8f32e03d9370-59" value="Citrix XenApp Server Farm&lt;div&gt;with firewalls&lt;/div&gt;" style="whiteSpace=wrap;html=1;fillColor=#EDEDED;fontSize=14;strokeColor=none;verticalAlign=top;" parent="1" vertex="1">
          <mxGeometry x="1640" y="-1250" width="280" height="1010" as="geometry" />
        </mxCell>
        <mxCell id="6a7d8f32e03d9370-58" value="Residential Private Networks" style="whiteSpace=wrap;html=1;fillColor=#dae8fc;fontSize=14;strokeColor=none;verticalAlign=top;" parent="1" vertex="1">
          <mxGeometry x="940" y="-550" width="310" height="318" as="geometry" />
        </mxCell>
        <mxCell id="6a7d8f32e03d9370-57" value="Enterprise Networks" style="whiteSpace=wrap;html=1;fillColor=#FFD470;gradientColor=none;fontSize=14;strokeColor=none;verticalAlign=top;" parent="1" vertex="1">
          <mxGeometry x="287" y="-860" width="308" height="680" as="geometry" />
        </mxCell>
        <mxCell id="6a7d8f32e03d9370-50" style="edgeStyle=none;rounded=0;html=1;startSize=10;endSize=10;jettySize=auto;orthogonalLoop=1;fontSize=14;endArrow=none;endFill=0;strokeWidth=2;" parent="1" source="6a7d8f32e03d9370-13" edge="1">
          <mxGeometry relative="1" as="geometry">
            <mxPoint x="1390.4881039531479" y="642" as="targetPoint" />
          </mxGeometry>
        </mxCell>
        <mxCell id="6a7d8f32e03d9370-51" style="edgeStyle=none;rounded=0;html=1;startSize=10;endSize=10;jettySize=auto;orthogonalLoop=1;fontSize=14;endArrow=none;endFill=0;strokeWidth=2;" parent="1" source="6a7d8f32e03d9370-13" target="6a7d8f32e03d9370-15" edge="1">
          <mxGeometry relative="1" as="geometry" />
        </mxCell>
        <mxCell id="6a7d8f32e03d9370-52" style="edgeStyle=none;rounded=0;html=1;startSize=10;endSize=10;jettySize=auto;orthogonalLoop=1;fontSize=14;endArrow=none;endFill=0;strokeWidth=2;" parent="1" source="6a7d8f32e03d9370-13" target="6a7d8f32e03d9370-26" edge="1">
          <mxGeometry relative="1" as="geometry" />
        </mxCell>
        <mxCell id="6a7d8f32e03d9370-56" style="edgeStyle=none;rounded=0;html=1;startSize=10;endSize=10;jettySize=auto;orthogonalLoop=1;fontSize=14;endArrow=none;endFill=0;strokeWidth=2;" parent="1" source="6a7d8f32e03d9370-13" target="6a7d8f32e03d9370-25" edge="1">
          <mxGeometry relative="1" as="geometry" />
        </mxCell>
        <mxCell id="6a7d8f32e03d9370-13" value="" style="verticalLabelPosition=bottom;aspect=fixed;html=1;verticalAlign=top;strokeColor=none;shape=mxgraph.citrix.router;fillColor=#66B2FF;gradientColor=#0066CC;fontSize=14;" parent="1" vertex="1">
          <mxGeometry x="1190" y="369.61" width="55" height="36.5" as="geometry" />
        </mxCell>
        <mxCell id="6a7d8f32e03d9370-15" value="Web Server" style="verticalLabelPosition=top;aspect=fixed;html=1;verticalAlign=bottom;strokeColor=none;shape=mxgraph.citrix.cache_server;fillColor=#66B2FF;gradientColor=#0066CC;fontSize=14;labelPosition=center;align=center;direction=west;" parent="1" vertex="1">
          <mxGeometry x="1209" y="56" width="71" height="97.5" as="geometry" />
        </mxCell>
        <mxCell id="6a7d8f32e03d9370-25" value="Secure Server" style="verticalLabelPosition=bottom;aspect=fixed;html=1;verticalAlign=top;strokeColor=none;shape=mxgraph.citrix.proxy_server;fillColor=#66B2FF;gradientColor=#0066CC;fontSize=14;" parent="1" vertex="1">
          <mxGeometry x="1653" y="584" width="76.5" height="90" as="geometry" />
        </mxCell>
        <mxCell id="6a7d8f32e03d9370-53" style="edgeStyle=none;rounded=0;html=1;startSize=10;endSize=10;jettySize=auto;orthogonalLoop=1;fontSize=14;endArrow=none;endFill=0;strokeWidth=2;" parent="1" source="6a7d8f32e03d9370-26" target="6a7d8f32e03d9370-29" edge="1">
          <mxGeometry relative="1" as="geometry" />
        </mxCell>
        <mxCell id="6a7d8f32e03d9370-54" style="edgeStyle=none;rounded=0;html=1;startSize=10;endSize=10;jettySize=auto;orthogonalLoop=1;fontSize=14;endArrow=none;endFill=0;strokeWidth=2;" parent="1" source="6a7d8f32e03d9370-26" target="6a7d8f32e03d9370-28" edge="1">
          <mxGeometry relative="1" as="geometry" />
        </mxCell>
        <mxCell id="6a7d8f32e03d9370-55" style="edgeStyle=none;rounded=0;html=1;startSize=10;endSize=10;jettySize=auto;orthogonalLoop=1;fontSize=14;endArrow=none;endFill=0;strokeWidth=2;" parent="1" source="6a7d8f32e03d9370-26" target="6a7d8f32e03d9370-27" edge="1">
          <mxGeometry relative="1" as="geometry" />
        </mxCell>
        <mxCell id="6a7d8f32e03d9370-26" value="" style="verticalLabelPosition=bottom;aspect=fixed;html=1;verticalAlign=top;strokeColor=none;shape=mxgraph.citrix.switch;fillColor=#66B2FF;gradientColor=#0066CC;fontSize=14;" parent="1" vertex="1">
          <mxGeometry x="1419" y="292" width="92" height="41.5" as="geometry" />
        </mxCell>
        <mxCell id="6a7d8f32e03d9370-27" value="Client" style="verticalLabelPosition=top;aspect=fixed;html=1;verticalAlign=bottom;strokeColor=none;shape=mxgraph.citrix.thin_client;fillColor=#66B2FF;gradientColor=#0066CC;fontSize=14;labelPosition=center;align=center;" parent="1" vertex="1">
          <mxGeometry x="1681" y="282" width="71" height="71" as="geometry" />
        </mxCell>
        <mxCell id="6a7d8f32e03d9370-28" value="Client" style="verticalLabelPosition=top;aspect=fixed;html=1;verticalAlign=bottom;strokeColor=none;shape=mxgraph.citrix.thin_client;fillColor=#66B2FF;gradientColor=#0066CC;fontSize=14;labelPosition=center;align=center;" parent="1" vertex="1">
          <mxGeometry x="1603" y="158" width="71" height="71" as="geometry" />
        </mxCell>
        <mxCell id="6a7d8f32e03d9370-29" value="Client" style="verticalLabelPosition=top;aspect=fixed;html=1;verticalAlign=bottom;strokeColor=none;shape=mxgraph.citrix.thin_client;fillColor=#66B2FF;gradientColor=#0066CC;fontSize=14;labelPosition=center;align=center;" parent="1" vertex="1">
          <mxGeometry x="1447" y="122" width="71" height="71" as="geometry" />
        </mxCell>
        <mxCell id="6a7d8f32e03d9370-49" style="edgeStyle=none;rounded=0;html=1;startSize=10;endSize=10;jettySize=auto;orthogonalLoop=1;fontSize=14;endArrow=none;endFill=0;strokeWidth=2;" parent="1" target="6a7d8f32e03d9370-13" edge="1">
          <mxGeometry relative="1" as="geometry">
            <mxPoint x="1221.1371882086169" y="688.61" as="sourcePoint" />
          </mxGeometry>
        </mxCell>
        <mxCell id="6a7d8f32e03d9370-62" value="Citrix Network Architecture" style="text;strokeColor=none;fillColor=none;html=1;fontSize=24;fontStyle=1;verticalAlign=middle;align=center;" parent="1" vertex="1">
          <mxGeometry x="499" y="30" width="861" height="40" as="geometry" />
        </mxCell>
        <mxCell id="kZsjGJi9dcrxmFM2xixJ-2" value="" style="ellipse;whiteSpace=wrap;html=1;aspect=fixed;" vertex="1" parent="1">
          <mxGeometry x="420" y="598.61" width="40" height="40" as="geometry" />
        </mxCell>
        <mxCell id="kZsjGJi9dcrxmFM2xixJ-4" value="" style="ellipse;whiteSpace=wrap;html=1;aspect=fixed;" vertex="1" parent="1">
          <mxGeometry x="420" y="738.61" width="40" height="40" as="geometry" />
        </mxCell>
        <mxCell id="kZsjGJi9dcrxmFM2xixJ-5" value="" style="endArrow=none;dashed=1;html=1;dashPattern=1 3;strokeWidth=4;rounded=0;" edge="1" parent="1">
          <mxGeometry width="50" height="50" relative="1" as="geometry">
            <mxPoint x="439.33" y="728.61" as="sourcePoint" />
            <mxPoint x="439.33" y="638.61" as="targetPoint" />
          </mxGeometry>
        </mxCell>
        <mxCell id="kZsjGJi9dcrxmFM2xixJ-7" value="" style="ellipse;whiteSpace=wrap;html=1;aspect=fixed;" vertex="1" parent="1">
          <mxGeometry x="561" y="516.86" width="40" height="40" as="geometry" />
        </mxCell>
        <mxCell id="kZsjGJi9dcrxmFM2xixJ-8" value="" style="ellipse;whiteSpace=wrap;html=1;aspect=fixed;" vertex="1" parent="1">
          <mxGeometry x="561" y="646.86" width="40" height="40" as="geometry" />
        </mxCell>
        <mxCell id="kZsjGJi9dcrxmFM2xixJ-9" value="" style="endArrow=none;dashed=1;html=1;dashPattern=1 3;strokeWidth=4;rounded=0;" edge="1" parent="1">
          <mxGeometry width="50" height="50" relative="1" as="geometry">
            <mxPoint x="580.9699999999999" y="635.86" as="sourcePoint" />
            <mxPoint x="580.64" y="565.86" as="targetPoint" />
          </mxGeometry>
        </mxCell>
        <mxCell id="kZsjGJi9dcrxmFM2xixJ-10" value="" style="ellipse;whiteSpace=wrap;html=1;aspect=fixed;" vertex="1" parent="1">
          <mxGeometry x="561" y="786.86" width="40" height="40" as="geometry" />
        </mxCell>
        <mxCell id="kZsjGJi9dcrxmFM2xixJ-12" value="" style="endArrow=none;dashed=1;html=1;dashPattern=1 3;strokeWidth=4;rounded=0;" edge="1" parent="1">
          <mxGeometry width="50" height="50" relative="1" as="geometry">
            <mxPoint x="580.6399999999999" y="776.86" as="sourcePoint" />
            <mxPoint x="580.6399999999999" y="686.86" as="targetPoint" />
          </mxGeometry>
        </mxCell>
        <mxCell id="kZsjGJi9dcrxmFM2xixJ-15" value="" style="ellipse;whiteSpace=wrap;html=1;aspect=fixed;" vertex="1" parent="1">
          <mxGeometry x="711" y="464.86" width="40" height="40" as="geometry" />
        </mxCell>
        <mxCell id="kZsjGJi9dcrxmFM2xixJ-16" value="" style="ellipse;whiteSpace=wrap;html=1;aspect=fixed;" vertex="1" parent="1">
          <mxGeometry x="711" y="580.36" width="40" height="40" as="geometry" />
        </mxCell>
        <mxCell id="kZsjGJi9dcrxmFM2xixJ-21" value="" style="endArrow=none;dashed=1;html=1;dashPattern=1 3;strokeWidth=4;rounded=0;" edge="1" parent="1">
          <mxGeometry width="50" height="50" relative="1" as="geometry">
            <mxPoint x="731" y="576.86" as="sourcePoint" />
            <mxPoint x="730.82" y="507.86" as="targetPoint" />
          </mxGeometry>
        </mxCell>
        <mxCell id="kZsjGJi9dcrxmFM2xixJ-22" value="" style="ellipse;whiteSpace=wrap;html=1;aspect=fixed;" vertex="1" parent="1">
          <mxGeometry x="711" y="699.36" width="40" height="40" as="geometry" />
        </mxCell>
        <mxCell id="kZsjGJi9dcrxmFM2xixJ-23" value="" style="endArrow=none;dashed=1;html=1;dashPattern=1 3;strokeWidth=4;rounded=0;" edge="1" parent="1">
          <mxGeometry width="50" height="50" relative="1" as="geometry">
            <mxPoint x="731" y="695.86" as="sourcePoint" />
            <mxPoint x="730.82" y="626.86" as="targetPoint" />
          </mxGeometry>
        </mxCell>
        <mxCell id="kZsjGJi9dcrxmFM2xixJ-24" value="" style="ellipse;whiteSpace=wrap;html=1;aspect=fixed;" vertex="1" parent="1">
          <mxGeometry x="711" y="819.36" width="40" height="40" as="geometry" />
        </mxCell>
        <mxCell id="kZsjGJi9dcrxmFM2xixJ-25" value="" style="endArrow=none;dashed=1;html=1;dashPattern=1 3;strokeWidth=4;rounded=0;" edge="1" parent="1">
          <mxGeometry width="50" height="50" relative="1" as="geometry">
            <mxPoint x="731" y="815.86" as="sourcePoint" />
            <mxPoint x="730.82" y="746.86" as="targetPoint" />
          </mxGeometry>
        </mxCell>
        <mxCell id="kZsjGJi9dcrxmFM2xixJ-28" value="" style="endArrow=none;html=1;rounded=0;entryX=0;entryY=0.5;entryDx=0;entryDy=0;exitX=1;exitY=0.5;exitDx=0;exitDy=0;" edge="1" parent="1" source="kZsjGJi9dcrxmFM2xixJ-2" target="kZsjGJi9dcrxmFM2xixJ-7">
          <mxGeometry width="50" height="50" relative="1" as="geometry">
            <mxPoint x="460" y="608.61" as="sourcePoint" />
            <mxPoint x="510" y="577.11" as="targetPoint" />
          </mxGeometry>
        </mxCell>
        <mxCell id="kZsjGJi9dcrxmFM2xixJ-30" value="" style="endArrow=none;html=1;rounded=0;entryX=0;entryY=0.5;entryDx=0;entryDy=0;exitX=1;exitY=0.5;exitDx=0;exitDy=0;" edge="1" parent="1" source="kZsjGJi9dcrxmFM2xixJ-2" target="kZsjGJi9dcrxmFM2xixJ-8">
          <mxGeometry width="50" height="50" relative="1" as="geometry">
            <mxPoint x="430" y="738.61" as="sourcePoint" />
            <mxPoint x="480" y="688.61" as="targetPoint" />
          </mxGeometry>
        </mxCell>
        <mxCell id="kZsjGJi9dcrxmFM2xixJ-31" value="128x1" style="text;html=1;strokeColor=none;fillColor=none;align=center;verticalAlign=middle;whiteSpace=wrap;rounded=0;fontSize=16;" vertex="1" parent="1">
          <mxGeometry x="413" y="862.11" width="60" height="30" as="geometry" />
        </mxCell>
        <mxCell id="kZsjGJi9dcrxmFM2xixJ-32" value="256x1" style="text;html=1;strokeColor=none;fillColor=none;align=center;verticalAlign=middle;whiteSpace=wrap;rounded=0;fontSize=16;" vertex="1" parent="1">
          <mxGeometry x="556" y="859.36" width="60" height="30" as="geometry" />
        </mxCell>
        <mxCell id="kZsjGJi9dcrxmFM2xixJ-33" value="512x1" style="text;html=1;strokeColor=none;fillColor=none;align=center;verticalAlign=middle;whiteSpace=wrap;rounded=0;fontSize=16;" vertex="1" parent="1">
          <mxGeometry x="701" y="859.36" width="60" height="30" as="geometry" />
        </mxCell>
        <mxCell id="kZsjGJi9dcrxmFM2xixJ-35" value="" style="endArrow=none;html=1;rounded=0;entryX=0;entryY=0.5;entryDx=0;entryDy=0;exitX=1;exitY=0.5;exitDx=0;exitDy=0;" edge="1" parent="1" source="kZsjGJi9dcrxmFM2xixJ-2" target="kZsjGJi9dcrxmFM2xixJ-10">
          <mxGeometry width="50" height="50" relative="1" as="geometry">
            <mxPoint x="390" y="758.61" as="sourcePoint" />
            <mxPoint x="440" y="708.61" as="targetPoint" />
          </mxGeometry>
        </mxCell>
        <mxCell id="kZsjGJi9dcrxmFM2xixJ-36" value="" style="endArrow=none;html=1;rounded=0;entryX=0;entryY=0.5;entryDx=0;entryDy=0;" edge="1" parent="1" target="kZsjGJi9dcrxmFM2xixJ-7">
          <mxGeometry width="50" height="50" relative="1" as="geometry">
            <mxPoint x="460" y="758.61" as="sourcePoint" />
            <mxPoint x="530" y="678.61" as="targetPoint" />
          </mxGeometry>
        </mxCell>
        <mxCell id="kZsjGJi9dcrxmFM2xixJ-157" value="" style="endArrow=none;html=1;rounded=0;entryX=0;entryY=0.5;entryDx=0;entryDy=0;exitX=1;exitY=0.5;exitDx=0;exitDy=0;" edge="1" parent="1" source="kZsjGJi9dcrxmFM2xixJ-4" target="kZsjGJi9dcrxmFM2xixJ-8">
          <mxGeometry width="50" height="50" relative="1" as="geometry">
            <mxPoint x="500" y="728.61" as="sourcePoint" />
            <mxPoint x="550" y="678.61" as="targetPoint" />
          </mxGeometry>
        </mxCell>
        <mxCell id="kZsjGJi9dcrxmFM2xixJ-158" value="" style="endArrow=none;html=1;rounded=0;entryX=0;entryY=0.5;entryDx=0;entryDy=0;" edge="1" parent="1" target="kZsjGJi9dcrxmFM2xixJ-10">
          <mxGeometry width="50" height="50" relative="1" as="geometry">
            <mxPoint x="460" y="758.61" as="sourcePoint" />
            <mxPoint x="555" y="678.61" as="targetPoint" />
          </mxGeometry>
        </mxCell>
        <mxCell id="kZsjGJi9dcrxmFM2xixJ-159" value="nomalisation" style="text;html=1;strokeColor=none;fillColor=none;align=center;verticalAlign=middle;whiteSpace=wrap;rounded=0;fontSize=16;" vertex="1" parent="1">
          <mxGeometry x="262.22" y="558.61" width="102.78" height="30" as="geometry" />
        </mxCell>
        <mxCell id="kZsjGJi9dcrxmFM2xixJ-166" value="" style="shape=cube;whiteSpace=wrap;html=1;boundedLbl=1;backgroundOutline=1;darkOpacity=0.05;darkOpacity2=0.1;size=4;rotation=0;direction=west;" vertex="1" parent="1">
          <mxGeometry x="44.370000000000005" y="1070" width="65.63" height="130" as="geometry" />
        </mxCell>
        <mxCell id="kZsjGJi9dcrxmFM2xixJ-167" value="encoding" style="text;html=1;strokeColor=none;fillColor=none;align=center;verticalAlign=middle;whiteSpace=wrap;rounded=0;fontSize=16;" vertex="1" parent="1">
          <mxGeometry x="272.22" y="770" width="92.78" height="30" as="geometry" />
        </mxCell>
        <mxCell id="kZsjGJi9dcrxmFM2xixJ-168" value="" style="shape=cube;whiteSpace=wrap;html=1;boundedLbl=1;backgroundOutline=1;darkOpacity=0.05;darkOpacity2=0.1;size=4;rotation=0;direction=west;" vertex="1" parent="1">
          <mxGeometry x="10" y="1050" width="60" height="113.5" as="geometry" />
        </mxCell>
        <mxCell id="kZsjGJi9dcrxmFM2xixJ-170" value="statistical features" style="text;html=1;strokeColor=none;fillColor=none;align=center;verticalAlign=middle;whiteSpace=wrap;rounded=0;fontSize=16;" vertex="1" parent="1">
          <mxGeometry x="195" y="618.61" width="70" height="30" as="geometry" />
        </mxCell>
        <mxCell id="kZsjGJi9dcrxmFM2xixJ-173" value="input&amp;nbsp;" style="text;html=1;strokeColor=none;fillColor=none;align=center;verticalAlign=middle;whiteSpace=wrap;rounded=0;fontSize=16;" vertex="1" parent="1">
          <mxGeometry x="180" y="450" width="60" height="30" as="geometry" />
        </mxCell>
        <mxCell id="kZsjGJi9dcrxmFM2xixJ-174" value="&lt;font style=&quot;font-size: 20px;&quot; color=&quot;#ff0000&quot;&gt;where is ReLu?&lt;/font&gt;" style="text;html=1;strokeColor=none;fillColor=none;align=center;verticalAlign=middle;whiteSpace=wrap;rounded=0;fontSize=16;" vertex="1" parent="1">
          <mxGeometry x="10" y="309.61" width="220" height="60" as="geometry" />
        </mxCell>
        <mxCell id="kZsjGJi9dcrxmFM2xixJ-178" value="" style="endArrow=none;html=1;rounded=0;entryX=0;entryY=0.5;entryDx=0;entryDy=0;exitX=1;exitY=0.5;exitDx=0;exitDy=0;" edge="1" parent="1" source="kZsjGJi9dcrxmFM2xixJ-7" target="kZsjGJi9dcrxmFM2xixJ-22">
          <mxGeometry width="50" height="50" relative="1" as="geometry">
            <mxPoint x="623.5" y="656.86" as="sourcePoint" />
            <mxPoint x="673.5" y="606.86" as="targetPoint" />
          </mxGeometry>
        </mxCell>
        <mxCell id="kZsjGJi9dcrxmFM2xixJ-179" value="" style="endArrow=none;html=1;rounded=0;entryX=0;entryY=0.5;entryDx=0;entryDy=0;exitX=1;exitY=0.5;exitDx=0;exitDy=0;" edge="1" parent="1" source="kZsjGJi9dcrxmFM2xixJ-7" target="kZsjGJi9dcrxmFM2xixJ-15">
          <mxGeometry width="50" height="50" relative="1" as="geometry">
            <mxPoint x="588.5" y="616.86" as="sourcePoint" />
            <mxPoint x="673.5" y="526.86" as="targetPoint" />
          </mxGeometry>
        </mxCell>
        <mxCell id="kZsjGJi9dcrxmFM2xixJ-181" value="" style="endArrow=none;html=1;rounded=0;entryX=0;entryY=0.5;entryDx=0;entryDy=0;exitX=1;exitY=0.5;exitDx=0;exitDy=0;" edge="1" parent="1" source="kZsjGJi9dcrxmFM2xixJ-7" target="kZsjGJi9dcrxmFM2xixJ-16">
          <mxGeometry width="50" height="50" relative="1" as="geometry">
            <mxPoint x="611" y="546.86" as="sourcePoint" />
            <mxPoint x="686" y="494.86" as="targetPoint" />
          </mxGeometry>
        </mxCell>
        <mxCell id="kZsjGJi9dcrxmFM2xixJ-182" value="" style="endArrow=none;html=1;rounded=0;entryX=0;entryY=0.5;entryDx=0;entryDy=0;exitX=1;exitY=0.5;exitDx=0;exitDy=0;" edge="1" parent="1" source="kZsjGJi9dcrxmFM2xixJ-7" target="kZsjGJi9dcrxmFM2xixJ-24">
          <mxGeometry width="50" height="50" relative="1" as="geometry">
            <mxPoint x="611" y="546.86" as="sourcePoint" />
            <mxPoint x="686" y="729.86" as="targetPoint" />
          </mxGeometry>
        </mxCell>
        <mxCell id="kZsjGJi9dcrxmFM2xixJ-183" value="" style="endArrow=none;html=1;rounded=0;entryX=0;entryY=0.5;entryDx=0;entryDy=0;exitX=1;exitY=0.5;exitDx=0;exitDy=0;" edge="1" parent="1" source="kZsjGJi9dcrxmFM2xixJ-8" target="kZsjGJi9dcrxmFM2xixJ-15">
          <mxGeometry width="50" height="50" relative="1" as="geometry">
            <mxPoint x="611" y="546.86" as="sourcePoint" />
            <mxPoint x="686" y="729.86" as="targetPoint" />
          </mxGeometry>
        </mxCell>
        <mxCell id="kZsjGJi9dcrxmFM2xixJ-184" value="" style="endArrow=none;html=1;rounded=0;entryX=0;entryY=0.5;entryDx=0;entryDy=0;exitX=1;exitY=0.5;exitDx=0;exitDy=0;" edge="1" parent="1" source="kZsjGJi9dcrxmFM2xixJ-8" target="kZsjGJi9dcrxmFM2xixJ-16">
          <mxGeometry width="50" height="50" relative="1" as="geometry">
            <mxPoint x="611" y="676.86" as="sourcePoint" />
            <mxPoint x="686" y="494.86" as="targetPoint" />
          </mxGeometry>
        </mxCell>
        <mxCell id="kZsjGJi9dcrxmFM2xixJ-185" value="" style="endArrow=none;html=1;rounded=0;entryX=0;entryY=0.5;entryDx=0;entryDy=0;exitX=1;exitY=0.5;exitDx=0;exitDy=0;" edge="1" parent="1" source="kZsjGJi9dcrxmFM2xixJ-10" target="kZsjGJi9dcrxmFM2xixJ-16">
          <mxGeometry width="50" height="50" relative="1" as="geometry">
            <mxPoint x="621" y="686.86" as="sourcePoint" />
            <mxPoint x="696" y="504.86" as="targetPoint" />
          </mxGeometry>
        </mxCell>
        <mxCell id="kZsjGJi9dcrxmFM2xixJ-186" value="" style="endArrow=none;html=1;rounded=0;entryX=0;entryY=0.5;entryDx=0;entryDy=0;exitX=1;exitY=0.5;exitDx=0;exitDy=0;" edge="1" parent="1" source="kZsjGJi9dcrxmFM2xixJ-8" target="kZsjGJi9dcrxmFM2xixJ-22">
          <mxGeometry width="50" height="50" relative="1" as="geometry">
            <mxPoint x="611" y="816.86" as="sourcePoint" />
            <mxPoint x="686" y="610.86" as="targetPoint" />
          </mxGeometry>
        </mxCell>
        <mxCell id="kZsjGJi9dcrxmFM2xixJ-187" value="" style="endArrow=none;html=1;rounded=0;entryX=0;entryY=0.5;entryDx=0;entryDy=0;exitX=1;exitY=0.5;exitDx=0;exitDy=0;" edge="1" parent="1" source="kZsjGJi9dcrxmFM2xixJ-8" target="kZsjGJi9dcrxmFM2xixJ-24">
          <mxGeometry width="50" height="50" relative="1" as="geometry">
            <mxPoint x="611" y="676.86" as="sourcePoint" />
            <mxPoint x="686" y="729.86" as="targetPoint" />
          </mxGeometry>
        </mxCell>
        <mxCell id="kZsjGJi9dcrxmFM2xixJ-188" value="" style="endArrow=none;html=1;rounded=0;entryX=-0.011;entryY=0.484;entryDx=0;entryDy=0;entryPerimeter=0;exitX=1;exitY=0.5;exitDx=0;exitDy=0;" edge="1" parent="1" source="kZsjGJi9dcrxmFM2xixJ-10" target="kZsjGJi9dcrxmFM2xixJ-24">
          <mxGeometry width="50" height="50" relative="1" as="geometry">
            <mxPoint x="606" y="806.86" as="sourcePoint" />
            <mxPoint x="676" y="836.86" as="targetPoint" />
          </mxGeometry>
        </mxCell>
        <mxCell id="kZsjGJi9dcrxmFM2xixJ-189" value="" style="endArrow=none;html=1;rounded=0;exitX=1;exitY=0.5;exitDx=0;exitDy=0;entryX=0;entryY=0.5;entryDx=0;entryDy=0;" edge="1" parent="1" source="kZsjGJi9dcrxmFM2xixJ-10" target="kZsjGJi9dcrxmFM2xixJ-22">
          <mxGeometry width="50" height="50" relative="1" as="geometry">
            <mxPoint x="631" y="696.86" as="sourcePoint" />
            <mxPoint x="676" y="716.86" as="targetPoint" />
          </mxGeometry>
        </mxCell>
        <mxCell id="kZsjGJi9dcrxmFM2xixJ-190" value="" style="endArrow=none;html=1;rounded=0;entryX=0;entryY=0.5;entryDx=0;entryDy=0;exitX=1;exitY=0.5;exitDx=0;exitDy=0;" edge="1" parent="1" source="kZsjGJi9dcrxmFM2xixJ-10" target="kZsjGJi9dcrxmFM2xixJ-15">
          <mxGeometry width="50" height="50" relative="1" as="geometry">
            <mxPoint x="611" y="816.86" as="sourcePoint" />
            <mxPoint x="686" y="610.86" as="targetPoint" />
          </mxGeometry>
        </mxCell>
        <mxCell id="kZsjGJi9dcrxmFM2xixJ-191" value="" style="ellipse;whiteSpace=wrap;html=1;aspect=fixed;" vertex="1" parent="1">
          <mxGeometry x="891.5" y="646.86" width="40" height="40" as="geometry" />
        </mxCell>
        <mxCell id="kZsjGJi9dcrxmFM2xixJ-192" value="1x1" style="text;html=1;strokeColor=none;fillColor=none;align=center;verticalAlign=middle;whiteSpace=wrap;rounded=0;fontSize=16;" vertex="1" parent="1">
          <mxGeometry x="881.5" y="860.36" width="60" height="30" as="geometry" />
        </mxCell>
        <mxCell id="kZsjGJi9dcrxmFM2xixJ-193" value="" style="endArrow=none;html=1;rounded=0;entryX=0;entryY=0.5;entryDx=0;entryDy=0;exitX=1;exitY=0.5;exitDx=0;exitDy=0;" edge="1" parent="1" source="kZsjGJi9dcrxmFM2xixJ-15" target="kZsjGJi9dcrxmFM2xixJ-191">
          <mxGeometry width="50" height="50" relative="1" as="geometry">
            <mxPoint x="646" y="546.86" as="sourcePoint" />
            <mxPoint x="721" y="494.86" as="targetPoint" />
          </mxGeometry>
        </mxCell>
        <mxCell id="kZsjGJi9dcrxmFM2xixJ-195" value="" style="endArrow=none;html=1;rounded=0;entryX=0;entryY=0.5;entryDx=0;entryDy=0;exitX=1;exitY=0.5;exitDx=0;exitDy=0;" edge="1" parent="1" source="kZsjGJi9dcrxmFM2xixJ-16" target="kZsjGJi9dcrxmFM2xixJ-191">
          <mxGeometry width="50" height="50" relative="1" as="geometry">
            <mxPoint x="656" y="556.86" as="sourcePoint" />
            <mxPoint x="731" y="504.86" as="targetPoint" />
          </mxGeometry>
        </mxCell>
        <mxCell id="kZsjGJi9dcrxmFM2xixJ-196" value="" style="endArrow=none;html=1;rounded=0;entryX=0;entryY=0.5;entryDx=0;entryDy=0;exitX=1;exitY=0.5;exitDx=0;exitDy=0;" edge="1" parent="1" source="kZsjGJi9dcrxmFM2xixJ-22" target="kZsjGJi9dcrxmFM2xixJ-191">
          <mxGeometry width="50" height="50" relative="1" as="geometry">
            <mxPoint x="666" y="566.86" as="sourcePoint" />
            <mxPoint x="741" y="514.86" as="targetPoint" />
          </mxGeometry>
        </mxCell>
        <mxCell id="kZsjGJi9dcrxmFM2xixJ-197" value="" style="endArrow=none;html=1;rounded=0;entryX=0;entryY=0.5;entryDx=0;entryDy=0;exitX=1;exitY=0.5;exitDx=0;exitDy=0;" edge="1" parent="1" source="kZsjGJi9dcrxmFM2xixJ-24" target="kZsjGJi9dcrxmFM2xixJ-191">
          <mxGeometry width="50" height="50" relative="1" as="geometry">
            <mxPoint x="676" y="576.86" as="sourcePoint" />
            <mxPoint x="751" y="524.86" as="targetPoint" />
          </mxGeometry>
        </mxCell>
        <mxCell id="kZsjGJi9dcrxmFM2xixJ-200" style="edgeStyle=orthogonalEdgeStyle;rounded=0;orthogonalLoop=1;jettySize=auto;html=1;" edge="1" parent="1">
          <mxGeometry relative="1" as="geometry">
            <mxPoint x="298" y="633.35" as="targetPoint" />
            <mxPoint x="265" y="633.85" as="sourcePoint" />
          </mxGeometry>
        </mxCell>
        <mxCell id="kZsjGJi9dcrxmFM2xixJ-201" style="edgeStyle=orthogonalEdgeStyle;rounded=0;orthogonalLoop=1;jettySize=auto;html=1;exitX=0.1;exitY=0.5;exitDx=0;exitDy=0;exitPerimeter=0;" edge="1" parent="1" source="kZsjGJi9dcrxmFM2xixJ-218">
          <mxGeometry relative="1" as="geometry">
            <mxPoint x="410" y="687" as="targetPoint" />
            <mxPoint x="355" y="687.36" as="sourcePoint" />
          </mxGeometry>
        </mxCell>
        <mxCell id="kZsjGJi9dcrxmFM2xixJ-205" value="" style="shape=cube;whiteSpace=wrap;html=1;boundedLbl=1;backgroundOutline=1;darkOpacity=0.05;darkOpacity2=0.1;size=42;rotation=-180;direction=west;labelBorderColor=#1A1A1A;fillColor=#333333;fillStyle=auto;" vertex="1" parent="1">
          <mxGeometry x="-650" y="793.95" width="50" height="166.33" as="geometry" />
        </mxCell>
        <mxCell id="kZsjGJi9dcrxmFM2xixJ-207" value="" style="shape=cube;whiteSpace=wrap;html=1;boundedLbl=1;backgroundOutline=1;darkOpacity=0.05;darkOpacity2=0.1;size=30;rotation=-180;direction=west;labelBorderColor=#1A1A1A;fillColor=#333333;fillStyle=auto;gradientColor=none;shadow=0;fillOpacity=50;strokeWidth=1;perimeterSpacing=0;strokeColor=#999999;" vertex="1" parent="1">
          <mxGeometry x="490" y="514.33" width="40" height="331.39" as="geometry" />
        </mxCell>
        <mxCell id="kZsjGJi9dcrxmFM2xixJ-210" value="batch nomalisation" style="text;html=1;strokeColor=none;fillColor=none;align=center;verticalAlign=middle;whiteSpace=wrap;rounded=0;fontSize=16;" vertex="1" parent="1">
          <mxGeometry x="466" y="859.36" width="95" height="30" as="geometry" />
        </mxCell>
        <mxCell id="kZsjGJi9dcrxmFM2xixJ-211" value="" style="shape=cube;whiteSpace=wrap;html=1;boundedLbl=1;backgroundOutline=1;darkOpacity=0.05;darkOpacity2=0.1;size=30;rotation=-180;direction=west;labelBorderColor=#1A1A1A;fillColor=#333333;fillStyle=auto;gradientColor=none;shadow=0;fillOpacity=50;strokeWidth=1;perimeterSpacing=0;strokeColor=#999999;" vertex="1" parent="1">
          <mxGeometry x="636" y="455.72" width="40" height="390" as="geometry" />
        </mxCell>
        <mxCell id="kZsjGJi9dcrxmFM2xixJ-212" value="batch nomalisation" style="text;html=1;strokeColor=none;fillColor=none;align=center;verticalAlign=middle;whiteSpace=wrap;rounded=0;fontSize=16;" vertex="1" parent="1">
          <mxGeometry x="608.5" y="858.25" width="95" height="30" as="geometry" />
        </mxCell>
        <mxCell id="kZsjGJi9dcrxmFM2xixJ-213" value="" style="shape=cube;whiteSpace=wrap;html=1;boundedLbl=1;backgroundOutline=1;darkOpacity=0.05;darkOpacity2=0.1;size=30;rotation=-180;direction=west;labelBorderColor=#1A1A1A;fillColor=#333333;fillStyle=auto;gradientColor=none;shadow=0;fillOpacity=50;strokeWidth=1;perimeterSpacing=0;strokeColor=#999999;" vertex="1" parent="1">
          <mxGeometry x="789" y="514.33" width="40" height="331.39" as="geometry" />
        </mxCell>
        <mxCell id="kZsjGJi9dcrxmFM2xixJ-214" value="batch nomalisation" style="text;html=1;strokeColor=none;fillColor=none;align=center;verticalAlign=middle;whiteSpace=wrap;rounded=0;fontSize=16;" vertex="1" parent="1">
          <mxGeometry x="761" y="859.36" width="95" height="30" as="geometry" />
        </mxCell>
        <mxCell id="kZsjGJi9dcrxmFM2xixJ-216" value="" style="shape=cube;whiteSpace=wrap;html=1;boundedLbl=1;backgroundOutline=1;darkOpacity=0.05;darkOpacity2=0.1;size=26;rotation=-180;direction=west;labelBorderColor=#1A1A1A;fillColor=#333333;fillStyle=auto;" vertex="1" parent="1">
          <mxGeometry x="305" y="680" width="30" height="90" as="geometry" />
        </mxCell>
        <mxCell id="kZsjGJi9dcrxmFM2xixJ-218" value="" style="shape=curlyBracket;whiteSpace=wrap;html=1;rounded=1;flipH=1;labelPosition=right;verticalLabelPosition=middle;align=left;verticalAlign=middle;" vertex="1" parent="1">
          <mxGeometry x="345" y="627.11" width="20" height="120" as="geometry" />
        </mxCell>
        <mxCell id="kZsjGJi9dcrxmFM2xixJ-219" value="&lt;font style=&quot;font-size: 14px;&quot;&gt;concatenate&lt;/font&gt;" style="text;html=1;strokeColor=none;fillColor=none;align=center;verticalAlign=middle;whiteSpace=wrap;rounded=0;fontSize=16;rotation=-90;" vertex="1" parent="1">
          <mxGeometry x="309" y="671.11" width="70" height="30" as="geometry" />
        </mxCell>
        <mxCell id="kZsjGJi9dcrxmFM2xixJ-221" value="categorical&lt;br&gt;features" style="text;html=1;strokeColor=none;fillColor=none;align=center;verticalAlign=middle;whiteSpace=wrap;rounded=0;fontSize=16;" vertex="1" parent="1">
          <mxGeometry x="190" y="706.11" width="70" height="30" as="geometry" />
        </mxCell>
        <mxCell id="kZsjGJi9dcrxmFM2xixJ-222" style="edgeStyle=orthogonalEdgeStyle;rounded=0;orthogonalLoop=1;jettySize=auto;html=1;" edge="1" parent="1">
          <mxGeometry relative="1" as="geometry">
            <mxPoint x="298" y="633.35" as="targetPoint" />
            <mxPoint x="265" y="633.85" as="sourcePoint" />
            <Array as="points">
              <mxPoint x="282" y="634" />
            </Array>
          </mxGeometry>
        </mxCell>
        <mxCell id="kZsjGJi9dcrxmFM2xixJ-223" style="edgeStyle=orthogonalEdgeStyle;rounded=0;orthogonalLoop=1;jettySize=auto;html=1;" edge="1" parent="1">
          <mxGeometry relative="1" as="geometry">
            <mxPoint x="298" y="720" as="targetPoint" />
            <mxPoint x="265" y="720.5" as="sourcePoint" />
            <Array as="points">
              <mxPoint x="282" y="720.65" />
            </Array>
          </mxGeometry>
        </mxCell>
        <mxCell id="kZsjGJi9dcrxmFM2xixJ-227" value="hidden layers" style="text;html=1;strokeColor=none;fillColor=none;align=center;verticalAlign=middle;whiteSpace=wrap;rounded=0;fontSize=16;" vertex="1" parent="1">
          <mxGeometry x="408" y="450" width="113" height="30" as="geometry" />
        </mxCell>
        <mxCell id="kZsjGJi9dcrxmFM2xixJ-228" value="output" style="text;html=1;strokeColor=none;fillColor=none;align=center;verticalAlign=middle;whiteSpace=wrap;rounded=0;fontSize=16;" vertex="1" parent="1">
          <mxGeometry x="874" y="448.25" width="60" height="30" as="geometry" />
        </mxCell>
      </root>
    </mxGraphModel>
  </diagram>
  <diagram id="s9_j5dwmGke50qRvMACy" name="Page-2">
    <mxGraphModel dx="353" dy="746" grid="1" gridSize="10" guides="1" tooltips="1" connect="1" arrows="1" fold="1" page="1" pageScale="1" pageWidth="827" pageHeight="1169" math="0" shadow="0">
      <root>
        <mxCell id="0" />
        <mxCell id="1" parent="0" />
        <mxCell id="uWqpE-WKPCquXVryM-U6-2" value="Accelerometer" style="text;strokeColor=none;fillColor=none;align=left;verticalAlign=middle;spacingLeft=4;spacingRight=4;overflow=hidden;points=[[0,0.5],[1,0.5]];portConstraint=eastwest;rotatable=0;whiteSpace=wrap;html=1;" vertex="1" parent="1">
          <mxGeometry x="440" y="370" width="90" height="30" as="geometry" />
        </mxCell>
        <mxCell id="uWqpE-WKPCquXVryM-U6-3" value="" style="shape=curlyBracket;whiteSpace=wrap;html=1;rounded=1;labelPosition=left;verticalLabelPosition=middle;align=right;verticalAlign=middle;rotation=90;" vertex="1" parent="1">
          <mxGeometry x="242.71" y="330" width="8.75" height="180" as="geometry" />
        </mxCell>
        <mxCell id="uWqpE-WKPCquXVryM-U6-7" value="Accelerometer" style="text;strokeColor=none;fillColor=none;align=left;verticalAlign=middle;spacingLeft=4;spacingRight=4;overflow=hidden;points=[[0,0.5],[1,0.5]];portConstraint=eastwest;rotatable=0;whiteSpace=wrap;html=1;" vertex="1" parent="1">
          <mxGeometry x="202.07999999999998" y="390.62" width="90" height="30" as="geometry" />
        </mxCell>
        <mxCell id="uWqpE-WKPCquXVryM-U6-8" value="x" style="text;strokeColor=none;fillColor=none;align=left;verticalAlign=middle;spacingLeft=4;spacingRight=4;overflow=hidden;points=[[0,0.5],[1,0.5]];portConstraint=eastwest;rotatable=0;whiteSpace=wrap;html=1;" vertex="1" parent="1">
          <mxGeometry x="150" y="420.62" width="20" height="20.62" as="geometry" />
        </mxCell>
        <mxCell id="uWqpE-WKPCquXVryM-U6-9" value="z" style="text;strokeColor=none;fillColor=none;align=left;verticalAlign=middle;spacingLeft=4;spacingRight=4;overflow=hidden;points=[[0,0.5],[1,0.5]];portConstraint=eastwest;rotatable=0;whiteSpace=wrap;html=1;" vertex="1" parent="1">
          <mxGeometry x="325.84" y="415.93" width="20" height="30" as="geometry" />
        </mxCell>
        <mxCell id="uWqpE-WKPCquXVryM-U6-10" value="y" style="text;strokeColor=none;fillColor=none;align=left;verticalAlign=middle;spacingLeft=4;spacingRight=4;overflow=hidden;points=[[0,0.5],[1,0.5]];portConstraint=eastwest;rotatable=0;whiteSpace=wrap;html=1;" vertex="1" parent="1">
          <mxGeometry x="237.08999999999997" y="415.93" width="20" height="30" as="geometry" />
        </mxCell>
        <mxCell id="uWqpE-WKPCquXVryM-U6-11" value="" style="shape=curlyBracket;whiteSpace=wrap;html=1;rounded=1;labelPosition=left;verticalLabelPosition=middle;align=right;verticalAlign=middle;rotation=90;" vertex="1" parent="1">
          <mxGeometry x="154.17" y="410" width="11.67" height="70" as="geometry" />
        </mxCell>
        <mxCell id="uWqpE-WKPCquXVryM-U6-15" value="" style="shape=curlyBracket;whiteSpace=wrap;html=1;rounded=1;labelPosition=left;verticalLabelPosition=middle;align=right;verticalAlign=middle;rotation=90;" vertex="1" parent="1">
          <mxGeometry x="240" y="410" width="11.67" height="70" as="geometry" />
        </mxCell>
        <mxCell id="uWqpE-WKPCquXVryM-U6-16" value="" style="shape=curlyBracket;whiteSpace=wrap;html=1;rounded=1;labelPosition=left;verticalLabelPosition=middle;align=right;verticalAlign=middle;rotation=90;" vertex="1" parent="1">
          <mxGeometry x="330" y="410" width="11.67" height="70" as="geometry" />
        </mxCell>
        <mxCell id="uWqpE-WKPCquXVryM-U6-17" value="Time" style="text;strokeColor=none;fillColor=none;align=left;verticalAlign=middle;spacingLeft=4;spacingRight=4;overflow=hidden;points=[[0,0.5],[1,0.5]];portConstraint=eastwest;rotatable=0;whiteSpace=wrap;html=1;" vertex="1" parent="1">
          <mxGeometry x="90" y="450" width="40" height="30" as="geometry" />
        </mxCell>
      </root>
    </mxGraphModel>
  </diagram>
</mxfile>
